<svg width="72" height="64" viewBox="0 0 72 64" xmlns="http://www.w3.org/2000/svg"><title>Fill 37</title><path d="M69.472 61.329a.51.51 0 0 1-.292-.079c-2.417-1.357-8.884-4.513-16.716-4.513-5.434 0-10.532 1.503-15.15 4.467-.022.013-.073-53.298-.073-53.298l.493-.437c.114-.1.162-.13.165-.133 5.165-3.098 10.464-4.67 15.75-4.67 7.215 0 12.515 2.859 15.032 4.562.395.268.836 1.047.836 1.736V61.05c0 .182-.044.272-.045.279zM17.91 56.763c-5.434 0-10.531 1.504-15.15 4.469a.548.548 0 0 1-.238.094.666.666 0 0 1-.04-.247V8.967c0-.592.404-1.353.864-1.63 5.164-3.099 10.463-4.67 15.749-4.67 7.216 0 12.515 2.859 15.03 4.562.002.001.046.033.15.134l.484.472v53.498c-.043-.014-.085-.027-.133-.055-2.417-1.357-8.884-4.515-16.716-4.515zM53.472 0C47.81 0 42.165 1.674 36.689 4.976a4.338 4.338 0 0 0-.628.474 4.322 4.322 0 0 0-.58-.488C32.756 3.11 27.025 0 19.248 0 13.588 0 7.941 1.674 2.466 4.975 1.014 5.851 0 7.741 0 9.573v50.71c0 2.1 1.371 3.685 3.19 3.685.63 0 1.25-.193 1.84-.573 3.982-2.568 8.38-3.87 13.07-3.87 6.894 0 12.606 2.803 14.743 4.01.407.228.824.373 1.247.433.15.021.296.032.444.032.1 0 .193-.022.29-.032h2.59c.63 0 1.25-.193 1.84-.573 3.981-2.568 8.38-3.87 13.07-3.87 6.894 0 12.606 2.803 14.743 4.01.548.308 1.116.465 1.69.465C70.606 64 72 62.402 72 60.282V9.572c0-1.793-.944-3.69-2.295-4.61C66.98 3.11 61.248 0 53.472 0z" fill="#019EE4" fill-rule="evenodd"/></svg>