<svg width="919" height="720" viewBox="0 0 919 720" xmlns="http://www.w3.org/2000/svg"><title>Path</title><path d="M884.44 82.255c4.106-7.158 16.62-19.06 25.15-19.06 4.745 1.614.071 13.458 5.109 17.488.626.258 4.444 4.882 3.733 5.305-2.156 5.727-5.95 43.24-3.536 44.799-.323 3.867-.11 6.245-2.948 9.038-3.132 4.697-10.691 1.179-14.933 1.179-1.567 2.56-6.367 4.341-7.27 7.073-3.767 11.407 15.748 29.979 12.183 42.245-.197 1.39-2.641 11.44-3.144 13.361-.472 1.8-.966 3.09-2.751 3.537 0 .748-7.373-1.653-8.645-1.769-2.859-3.43-1.366-10.96-2.948-10.806-2.142.267-3.825 3.536-4.126 3.536-.422 3.375-3.54 13.952-7.073 15.72-2.058 2.572-6.767 2.947-9.825 2.947-.99.76-.97.624-.982 2.16 3.257 1.968 5.076 5.574 4.912 8.057.897 4.45-5.231 8.367-6.68 7.466-6.608 0-11.441-3.536-17.291-3.536-2.477.904-3.082 9.234-4.912 9.234-1.591 6.362-7.303 10.266-10.807 15.523-4.79 1.792-7.768 5.555-11.003 8.252 0 3.291-2.599 7.417-2.948 11.2-10.447 8.706-23.617 4.188-31.241 21.613-.21 3.772-4.912 11.135-4.912 11.2-4.065.136-8.192.5-12.182.59-.313-3.75 2.696-10.414 7.073-10.414 0-1.827-7.647-11.396-4.126-11.396.393-7.641 8.792-9.778 6.484-18.47-1.261-5.046-6.927-6.808-11.2-5.109 0 .205-32.578 39.69-32.616 39.69-1.524 2.287-13.863 4.547-16.898 5.306-3.946 3.382-6.415 11.922-.393 14.932.869 3.475 2.75 5.077 2.75 8.646 1.393.736 11.28-4.405 16.31-2.358 1.366 3.183 2.553 6.396 2.553 10.02 1.035 1.763 6.26 7.182 8.253 7.467 7.71 0 7.736-17.683 22.203-17.683 6.195-1.77 11.683 4.81 18.862 2.75 4.33-1.242 7.054.189 10.218 1.769 0 1.12.854 9.235-2.162 9.235-.759 1.139-16.206 7.83-16.504 7.663 1.343 2.285-13.481 17.366-15.523 15.915-.5 1.669-5.502 8.907-5.502 9.038-.714.536-2.161 2.634-2.161 3.34-.902 1.885-2.75 13.648-2.75 13.951.982 2.189 3.143 2.826 3.143 3.34 21.766 2.947 22.639 35.98 30.456 39.887 5.85 5.758 12.628 8.489 18.862 13.164 7.556 4.171-7.558 4.577-7.86 7.074 4.604 2.644 9.795 5.217 12.38 12.772-.197 8.554-18.983 16.099-23.186 20.827 1.418 1.19 4.72.982 6.484.982 4.67-8.77 18.359-2.112 24.757.393-1.453 5.103-9.824 7.53-9.824 11.397 1.592 0 6.145-5.09 7.663-2.555 0 1.577 1.705 5.559.196 7.074-2.206 2.617-4.35.46-6.287 2.161-.197 10.142 11.424 24.168-5.502 24.168-5.05 8.741-6.278 9.949-6.68 21.613-4.592 3.05-3.837 10.11-7.86 13.558-2.255-.066-6.209-.226-6.877 1.179 0 2.637 4.73 4.43 6.877 4.912-.503 4.258-6.943 2.433-5.108 8.252.354 4.96 1.587 7.853.393 12.576-9.401.67-2.741 8.542-10.021 12.182-2.088 6.263-11.591 6.113-12.182 8.252-1.999 2.165-11.657 21.22-15.523 21.22-4.749 1.91-14.736 3.624-14.736 9.039-.408 1.434.338 2.206.393 3.733-9.5 5.385-21.906 18.06-34.385 14.147-5.099-1.598-5.767 9.431-10.61 9.431-2.711 2.513-9.628-4.677-9.628-6.877-3.89-2.592-4.078 2.07-4.716 3.34-2.083 8.33-15.76 17.095-24.168 17.095-5.647 1.728-33.338 4.593-34.385 9.824-.196 2.404-1.88 7.663-4.912 7.663-2.598 3.118-1.003 1.884-.196 5.109 1.629-.024 2.911.157 4.126.393.835 1.465.674 5.55.393 7.27-3.828 2.115-5.318 1.942-9.824 1.768-1.873-.57-5.407-8.723-7.074-10.807-6.415-3.204.03-9.727.393-13.36-5.166 1.087-8.16 3.201-12.182 3.536-.691-.38-9.33-13.285-9.628-6.68 2.094 1.046 2.661 2.96 0 3.34 0 1.248-15.01-.472-16.308-.59-5.035 0-23.621-5.11-22.007-13.164-.965-2.442 1.346-8.172 1.376-10.807-3.258-1.544-21.22-4.847-21.22-4.912-2.936-.734-2.221-4.176-3.93-4.716-.907-.807-4.59.248-5.11.59-1.466 2.2-7.394 9.628-10.61 9.628-2.88.376-5.14-.03-7.466 1.964 0 5.215-6.969 3.144-9.235 3.144-.84-1.008-2.861-2.186-3.34-3.144-.852 0-7.663 1.948-7.663 2.162-4.95 1.475-8.39-3.144-12.772-3.144-.752 1.003-4.093 4.69-4.912 4.716-1.502 1.277-8.813-1.785-10.217-.59-2.056.468-1.642 2.655-1.572 5.109 2.179 1.901 2.694 8.886 2.554 11.396 2.015 0 1.897 10.04 1.376 11.396-.654 3.268-3.333 2.195-5.895 1.769-5.327-1.262-8.25-6.925-8.252-11.986-.001-3.533-.395-1.673-2.161-4.323-5.484 0-5.33 5.502-8.842 5.502-2.575-.018-2.958-.988-5.305-1.179-.877-4.043-10.218-11.347-10.218-11.593-1.482-.531-5.27.866-6.287 0-1.145-.31-2.795-2.49-3.144-3.537-1.017-4.926.834-13.419-.786-17.487-2.488-.83-4.13-.83-5.894-2.947-3.173-2.115-4.299-13.676-7.664-17.88-5.5-3.687-8.23 3.144-12.575 3.144-6.048-1.417-3.548-4.709-4.715-10.414-1.902-6.73 1.457-11.13 2.947-17.094.393-3.858 10.937-8.538 13.558-11.397 3.051-1.919 9.765-31.43 6.09-35.564 0-2.069-7.466-4.759-7.466-6.877-.602-.452-1.238-2.357-1.375-2.357 0-5.915-2.165-8.012-5.502-12.183-2.16-.54-4.693-1.52-6.287.393-3.65 1.825.13 11.378-5.502 12.183-3.69 1.195-7.872-5.799-11.396-8.253-3.346 0-10.164-5.206-13.95-6.287-3.373.828-8.304 5.68-10.611 8.448-9.79 1.05-18.41 13.08-27.508 16.112-3.715 1.98-28.725 7.005-33.536 0-1.997-1.958.334-9.295.527-11.985-3.322-2.215-5.346-3.196-5.306-7.86-1.25-.706-9.038-2.292-9.038-2.358-6.604-1.65-11.08-11.396-19.649-11.396 0-.065-13.142 4.303-14.736 7.074 0 2.543.842 6.81-.59 9.038-4.23 2.116-4.321 2.227-9.234.59-2.955-5.912.09-10.176.196-15.916-2.996-1.996-9.303-2.043-12.575-.786-3.33.666-6.375 5.034-10.217 3.93-4.185-1.287-6.464-4.928-9.235-8.252-5.784-1.158-10.487-.873-16.309-.983-4.485-4.077-8.46-10.757-12.182-15.719-3.196-2.039-7.076.062-10.217-4.126-3.653-4.227-5.831-11.597-6.091-16.505-2.454-1.636-9.427.009-10.61-2.358-1.522 0-4.912-6.646-4.912-7.663-3.003-2.252-8.372-3.797-10.61-6.484-.394-2.573-8.52-12.146-8.646-12.182-8.287 1.38-18.005 5.91-24.364-2.358-1.89-2.058-2.358-6.68-2.358-10.413-8.453-6.763-11.113-15.13-22.792-15.13-2.392-.685-1.792-.821-3.144-1.965.347-4.052-.383-6.272 2.554-8.842 4.325-3.276 1.572-15.79 1.572-19.845-.197-5.282-.748-2.826.786-5.894 4.515 0 7.472 3.44 11.396 3.537.467-1.675.983-.62.983-2.751.196-7.975-2.25-14.675-3.537-22.4-2.161-5.995 4.519-9.252 4.519-13.95-.496-2.874-1.002-2.97-2.161-3.93-7.3-1.459-8.28-10.465-6.68-16.112 1.846-6.522-18.761-22.884-22.597-19.452-1.504-.107-3.513-2.725-3.34-2.947 0-3.694 3.487-13.774 1.572-16.898-2.97-1.485-12.414-9.238-14.54-11.79-4.324-5.953.375-11.194 5.894-12.574 3.037-6.078 1.572-12.41 1.572-18.863-.196-7.052-7.894-2.452-11.789-2.358-2.825-2.063-5.979-3.519-2.947-10.217 6.13-1.338 4.478-9.038 1.572-9.038-.816-1.677 6.54-5.808 7.466-9.825 5.49 0 22.373-14.64 32.224-11.396 6.852 1.141 1.449 9.405 10.61 9.825 13.276-11.062 20.161-11.79 37.136-11.79 1.417-.668 18.077-2.384 18.077-3.34 5.47-2.85 5.843-5.44 5.305-8.645.55-.44 15.771-19.077 15.915-19.452 1.801-7.989 2.179-16.2.59-24.365 1.004-2.552 1.373-6.043-.786-7.663-1.791-2.557-.556-4.519 2.554-4.519 12.388-3.776 22.226 3.537 33.796 3.537 3.254-4.167-3.157-14.534 8.645-20.435 1.741-2.758 7.646-13.683 8.056-15.325 1.632-2.152 4.354-1.382 6.484-1.18 0 5.387 25.217 9.198 26.33 9.039 3.823-.435 4.652-1.278 5.697-4.716.066 0-.346-12.288.393-13.95 2.313-8.457 14.618-7.624 21.22-9.825 3.69-3.27 2.247-9.627 10.021-9.627 3.675-1.152 9.235 1.17 9.235 5.501.287 2.425 1.769 5.68 1.769 7.074-1.069 3.1 13.883 14.794 16.505 14.343 2.271.62 8.927 4.428 9.43 6.091 0 4.46.669 13.666 3.93 16.112 1.2 6.003 6.06 15.496-.785 20.631-6.183 6.823-7.49 11.698-1.572 18.273 3.63 2.637 10.568 3.445 15.326 4.52 2.907-.17 50.985 17.122 49.121 29.08.416 4.389 2.106 11.76 6.484 13.95.393.986.134 9.235 1.376 9.235 1.506 1.768 1.637 1.965 1.768 2.161 5.315 0 11.255 2.358 17.487 2.358 4.76 1.418 14.102 5.109 18.077 5.109 11.694.393 22.652-.197 33.992-.197 11.667 1.655 17.752 13.479 26.33 14.737 3.899-4.416 12.252 1.73 13.95 4.126 8.417.196 10.42 4.77 15.325 8.449 1.035 1.38 2.191 1.58 3.93 1.572 2.483-7.445 51.676-17.944 51.676-25.15 8.279-2.464 18.793 4.23 28.294 2.357 1.391-4.169 10.301-12.577 13.558-15.522 3.823-3.458 18.924-14.636 17.094-16.701-1.47-5.315-10.48-28.566 3.537-28.49.15.217 17.29 11.063 17.29 6.876 4.837 0 14.361-11.725 15.523-16.112 5.747-1.14 16.005-1.358 18.666-6.68 3.742-2.835 7.195-12.772 8.252-12.772 2.603-3.123 7.17-4.15 11.003-5.109 2.36-2.407 9.209-7.859 11.396-7.859 0-1.018 19.204-1.385 22.007-2.161.028-2.479-.59-5.29-.59-7.074-2.423-7.726-11.903-12.487-19.451-16.701-3.272-.09-4.465 3.733-8.842 3.733-1.935 2.21-2.202 4.279-4.127 6.68-4.554-.19-12.943-4.029-15.915-3.143-4.488.196-8.197 4-15.13 3.733-.975-1.823-2.496-2.905-2.554-5.698 2.582-2.95 7.008-6.565 5.698-11.003 0-9.477 2.757-15.545 4.716-25.347 1.21-1.406 2.514-2.677 3.93-3.144 9.54 0 19.74.877 26.525-6.877 1.769-6.746 5.306-14.42 5.306-20.434.196-7.786 9.208-21.024 9.43-21.024 2.346-5.477-4.255-11.361-8.645-13.558 0-.359-.175-2.161-.392-2.161.86-5.6 1.316-6.293 5.108-9.235 4.286-1.071 8.26-2.36 12.379-3.733 2.52-5.04 17.205-9.431 22.792-9.431 3.917-.87 8.39 3.143 12.182 3.143 7.184-.14 11.162-.744 17.488 1.965 1.384.777 23.185 23.459 23.185 27.705.917 1.44 1.244 1.703 1.572 1.965 3.232 3.332 6.802 6.856 10.02 9.43.197 5.85 3.012 8.644 6.68 11.397.953 2.237 2.195 9.038 4.127 9.038 4.543.393 12.703-.558 16.112.786 0 1.948 8.49.054 11.003.786 0 .396 3.45 1.783 3.93 2.358.415 3.866 8.295 6.048 12.771 7.074 0 4.476 6.514 17.487 11.79 17.487 8.345 2.584 15.995-6.254 20.827-11.003z" fill="#232A30" fill-rule="evenodd"/></svg>