<svg width="70" height="62" viewBox="0 0 70 62" xmlns="http://www.w3.org/2000/svg"><title>icon_book</title><g stroke="#019EE4" stroke-width="3" fill="none" fill-rule="evenodd"><path d="M3 60c-.063.04-1-.874-1-1V8c0-.592.54-.723 1-1 5.164-3.1 10.714-5 16-5 7.216 0 13.24 2.849 16 5 0 0 .049 53.028 0 53-2.417-1.357-9.168-4-17-4-5.434 0-10.381 1.035-15 4z"/><path d="M67.022 60c.063.04 1-.874 1-1V8c0-.592-.54-.723-1-1-5.164-3.1-10.714-5-16-5-7.216 0-13.24 2.849-16 5 0 0-.05 53.028 0 53 2.416-1.357 9.167-4 17-4 5.433 0 10.381 1.035 15 4z"/></g></svg>