<svg width="63" height="67" viewBox="0 0 63 67" xmlns="http://www.w3.org/2000/svg"><title>icon_user</title><path d="M38.099 41.552s4.737-4.69 5.77-10.996c2.777 0 4.492-6.705 1.714-9.064C45.7 19.01 49.153 2 31.667 2 14.18 2 17.634 19.01 17.749 21.492c-2.777 2.36-1.062 9.064 1.716 9.064 1.032 6.306 5.77 10.996 5.77 10.996s-.037 4.433-1.65 4.69c-2.45.39-10.739 1.405-14.583 4.48C4.7 54.162 3.05 58.11 3.05 58.11.813 61.915 2.582 65 6.995 65h49.344c4.415 0 6.236-3.117 3.913-6.886 0 0-1.736-4.06-6.11-7.543-3.794-3.022-11.982-3.946-14.394-4.33-1.613-.256-1.65-4.69-1.65-4.69z" stroke="#019EE4" stroke-width="3" fill="none" fill-rule="evenodd"/></svg>