<svg width="29" height="28" viewBox="0 0 29 28" xmlns="http://www.w3.org/2000/svg"><path d="M27.132 19.49s-.251-4.77-8.532-10.148c-.934-.606-1.422-1.768-1.422-2.968a3.809 3.809 0 0 1 3.81-3.808c1.051 0 1.99.44 2.693 1.115 1.502 1.445 6.434 6.143 3.451 15.81zm-7.51-18.409s-4.776.138-10.347 8.29c-.629.919-1.802 1.379-3.001 1.35a3.809 3.809 0 0 1-3.718-3.897c.025-1.051.487-1.98 1.179-2.666C5.215 2.69 10.028-2.13 19.62 1.08zM.94 8.318s.252 4.77 8.533 10.148c.933.606 1.421 1.768 1.421 2.968a3.809 3.809 0 0 1-3.809 3.809c-1.052 0-1.99-.44-2.693-1.116C2.89 22.683-2.042 17.985.94 8.317zM8.623 27.03s4.771-.227 10.19-8.48c.611-.93 1.776-1.414 2.975-1.407a3.81 3.81 0 0 1 3.79 3.828c-.005 1.052-.45 1.989-1.129 2.687-1.452 1.495-6.175 6.404-15.826 3.372z" fill="#FFF"/></svg>