<svg width="24" height="29" viewBox="0 0 24 29" xmlns="http://www.w3.org/2000/svg"><path d="M15.998 4.617c1.011-1.222 1.69-2.92 1.504-4.617-1.451.057-3.216.972-4.254 2.189-.932 1.085-1.75 2.812-1.533 4.471 1.62.126 3.276-.823 4.283-2.043m7.512 16.58c-.036.098-.608 2.073-2.002 4.107-1.2 1.762-2.45 3.518-4.42 3.553-1.93.038-2.551-1.146-4.762-1.146-2.21 0-2.9 1.111-4.73 1.184-1.9.074-3.342-1.904-4.557-3.657-2.483-3.588-4.374-10.14-1.834-14.559C2.472 8.482 4.728 7.095 7.18 7.057c1.868-.031 3.626 1.255 4.766 1.255 1.141 0 3.277-1.555 5.527-1.327.938.043 3.582.38 5.282 2.867-.14.089-3.155 1.842-3.122 5.5.037 4.372 3.833 5.827 3.877 5.844" fill="#FFF"/></svg>