<svg width="43" height="64" viewBox="0 0 43 64" xmlns="http://www.w3.org/2000/svg"><title>Combined Shape</title><path d="M25.334 64c.513 0 .979-.294 1.203-.755l16-33.335c.195-.409.169-.89-.068-1.276L32.19 11.932 37.193 1.93a1.337 1.337 0 0 0-.057-1.297A1.34 1.34 0 0 0 36 0H5.333a1.335 1.335 0 0 0-1.13 2.04l6.228 9.965L.198 28.635a1.331 1.331 0 0 0-.066 1.275l16 33.335c.22.46.688.755 1.201.755m5.334-2.667V34.616c0-.737-.597.189-1.334.189-.737 0-1.333-.926-1.333-.189v26.717h-1.828L2.85 29.413l9.895-16.08h17.177l9.893 16.08-15.32 31.92M12.74 10.667l-5-8h26.104l-4 8M28 28a6.674 6.674 0 0 0-6.667-6.667A6.674 6.674 0 0 0 14.667 28a6.675 6.675 0 0 0 6.666 6.667A6.674 6.674 0 0 0 28 28zm-2.667 0c0 2.206-1.794 4-4 4-2.205 0-4-1.794-4-4s1.795-4 4-4c2.206 0 4 1.794 4 4z" fill="#019EE4" fill-rule="evenodd"/></svg>