<svg width="63" height="67" viewBox="0 0 63 67" xmlns="http://www.w3.org/2000/svg"><title>Shape</title><path d="M37.848 41.552s4.737-4.69 5.77-10.996c2.777 0 4.493-6.705 1.715-9.064C45.449 19.01 46.903 2 31.416 2S17.383 19.01 17.499 21.492c-2.778 2.36-1.063 9.064 1.715 9.064 1.032 6.306 5.77 10.996 5.77 10.996s-.037 4.433-1.235 4.69C6.75 48 3.116 58.318 3.116 58.318.704 62.009 2.331 65 6.744 65h49.344c4.415 0 6.302-3.154 3.797-6.795 0 0-3.136-10.205-20.136-11.964-1.864-.256-1.901-4.69-1.901-4.69z" stroke="#019EE4" stroke-width="2.5" fill="none" fill-rule="evenodd"/></svg>