<svg width="44" height="45" viewBox="0 0 44 45" xmlns="http://www.w3.org/2000/svg" xmlns:xlink="http://www.w3.org/1999/xlink"><title>weibo</title><defs><ellipse id="a" cx="22" cy="21.831" rx="22" ry="21.831"/><mask id="b" x="0" y="0" width="44" height="43.663" fill="#fff"><use xlink:href="#a"/></mask><path d="M26.674 12.915a.766.766 0 0 0-.75.762v.37c0 .413.334.728.76.721 0 0 3.23-.34 4.607 1.65 1.376 1.99.781 4.489.781 4.489-.063.408.223.738.643.738h.32c.42 0 .806-.33.85-.74 0 0 .742-3.925-1.552-6.11-1.791-1.708-4.239-1.895-5.223-1.895-.276 0-.436.015-.436.015zM10 25.489c0 3.854 4.805 6.978 10.731 6.978 5.927 0 10.685-3.124 10.685-6.978 0-3.255-4.045-3.255-4.045-3.465 0-.21 2.015-2.102 0-3.279-1.207-.705-3.015-.344-4.246.016-.822.24-1.386.481-1.342.404 1.584-2.747-.68-3.614-1.835-3.614-2.753 0-9.948 6.084-9.948 9.938zm3.53 1.305c-.352-2.48 2.433-4.92 6.219-5.447 3.786-.528 7.14 1.054 7.492 3.535.351 2.48-2.433 4.92-6.22 5.447-.492.069-.976.102-1.448.102-3.159 0-5.738-1.479-6.043-3.637zm13.583-10.45a.601.601 0 0 0-.497.573v.195c0 .275.222.482.509.474 0 0 1.372-.185 2.04.613.667.798.144 2.09.144 2.09-.08.261.083.473.357.473h.456a.615.615 0 0 0 .591-.493s.536-2.07-.715-3.205c-.723-.656-1.575-.794-2.164-.795-.43 0-.721.074-.721.074zm-8.133 6.46c-2.252.435-3.777 2.32-3.407 4.212.371 1.891 2.497 3.072 4.749 2.638 2.252-.435 3.777-2.32 3.407-4.211-.319-1.627-1.936-2.728-3.815-2.728-.306 0-.618.029-.934.09zm.713 2.685c0-.385.31-.697.692-.697.383 0 .693.312.693.697 0 .385-.31.698-.693.698a.695.695 0 0 1-.692-.698zm-2.598 1.922c-.246-.525.116-1.21.809-1.53.693-.32 1.455-.156 1.701.368s-.116 1.209-.81 1.53c-.24.11-.487.163-.72.163-.438 0-.82-.189-.98-.53z" id="c"/></defs><g transform="translate(0 .396)" fill="none" fill-rule="evenodd"><use stroke="#FFF" mask="url(#b)" stroke-width="2" xlink:href="#a"/><use fill="#FFF" xlink:href="#c"/></g></svg>