<svg width="44" height="45" viewBox="0 0 44 45" xmlns="http://www.w3.org/2000/svg" xmlns:xlink="http://www.w3.org/1999/xlink"><title>weixin</title><defs><circle id="a" cx="22" cy="22" r="22"/><mask id="b" x="0" y="0" width="44" height="44" fill="#fff"><use xlink:href="#a"/></mask><path d="M11 19.522c0 2.482 1.378 4.683 3.503 6.053.238.154-.79 2.314-.534 2.446.218.113.772-.304 1.326-.72.536-.404 1.073-.807 1.306-.731a9.75 9.75 0 0 0 3.024.475c.533 0 1.055-.043 1.561-.123 1.002 2.303 3.619 3.946 6.69 3.946.838 0 1.644-.123 2.39-.348.123-.037.594.307 1.066.652.478.35.957.699 1.074.65.377-.155-.687-1.894-.35-2.1C33.84 28.626 35 26.848 35 24.84c0-3.233-3.009-5.872-6.787-6.02-.407-3.826-4.096-6.82-8.588-6.82C14.86 12 11 15.368 11 19.522zm4.639 5.394c.028-.283-.398-.48-.483-.537-1.62-1.107-2.656-2.934-2.656-4.833 0-3.331 3.19-6.032 7.125-6.032 3.674 0 6.7 2.355 7.084 5.379-3.38.47-5.96 2.954-5.96 5.947 0 .223.015.442.043.659-.38.053-.77.08-1.167.08a8.223 8.223 0 0 1-2.802-.484c-.086-.031-.392-.124-.557 0-.372.28-.87.859-.87.859s.182-.422.243-1.038zM29 22.597c0-.418.336-.757.75-.757s.75.34.75.757a.753.753 0 0 1-.75.757.753.753 0 0 1-.75-.757zm-4.5 0c0-.418.336-.757.75-.757s.75.34.75.757a.753.753 0 0 1-.75.757.753.753 0 0 1-.75-.757zm-3-5.677a1.13 1.13 0 0 0 1.125 1.136 1.13 1.13 0 0 0 1.125-1.136 1.13 1.13 0 0 0-1.125-1.135A1.13 1.13 0 0 0 21.5 16.92zm-6 0a1.13 1.13 0 0 0 1.125 1.136 1.13 1.13 0 0 0 1.125-1.136 1.13 1.13 0 0 0-1.125-1.135A1.13 1.13 0 0 0 15.5 16.92z" id="c"/></defs><g transform="translate(0 .396)" fill="none" fill-rule="evenodd"><use stroke="#FFF" mask="url(#b)" stroke-width="2" xlink:href="#a"/><use fill="#FFF" xlink:href="#c"/></g></svg>