<?xml version="1.0" encoding="UTF-8" standalone="no"?>
<svg width="72px" height="64px" viewBox="0 0 72 64" version="1.1" xmlns="http://www.w3.org/2000/svg" xmlns:xlink="http://www.w3.org/1999/xlink">
    <!-- Generator: Sketch 3.7.2 (28276) - http://www.bohemiancoding.com/sketch -->
    <title>Fill 37</title>
    <desc>Created with Sketch.</desc>
    <defs></defs>
    <g id="Page-1" stroke="none" stroke-width="1" fill="none" fill-rule="evenodd">
        <g id="阅文集团-2" transform="translate(-1140.000000, -582.000000)" fill="#019EE4">
            <g id="about" transform="translate(0.000000, 511.000000)">
                <g id="Group-2" transform="translate(810.000000, 59.000000)">
                    <g id="3" transform="translate(330.000000, 12.000000)">
                        <g id="icon_book">
                            <path d="M69.4721747,61.3286191 C69.3608656,61.3333333 69.2777909,61.3056373 69.179513,61.2502453 C66.7627463,59.8931399 60.2959543,56.7369715 52.4635887,56.7369715 C47.0295287,56.7369715 41.9321111,58.2402175 37.3135945,61.2036924 C37.2924186,61.2172457 37.2413793,7.90592994 37.2413793,7.90592994 L37.7343975,7.46927556 C37.8478786,7.36850916 37.8956601,7.33845603 37.8994609,7.33609892 C43.064207,4.23767959 48.3625241,2.66666667 53.6483528,2.66666667 C60.8644456,2.66666667 66.1643916,5.52466091 68.6810651,7.2282612 C69.0763484,7.49579303 69.5172414,8.27481744 69.5172414,8.96368245 L69.5172414,61.0504803 C69.5172414,61.2319777 69.4727177,61.3215478 69.4721747,61.3286191 Z M17.9096683,56.7630533 C12.4761513,56.7630533 7.37873373,58.2670244 2.76021712,61.2319288 C2.69723241,61.2720189 2.61144289,61.3191839 2.52185258,61.3262586 C2.50502046,61.2855789 2.48275862,61.2042194 2.48275862,61.0786428 L2.48275862,8.96671993 C2.48275862,8.37480027 2.88618654,7.61426605 3.3460835,7.33776174 C8.51028659,4.23843739 13.8086037,2.66666667 19.0949754,2.66666667 C26.3105252,2.66666667 31.6104712,5.52603952 34.1249728,7.22928244 C34.1271447,7.23046157 34.1711254,7.26170832 34.27429,7.36252332 L34.7586207,7.83476201 L34.7586207,61.3333333 C34.7162689,61.3191839 34.6744601,61.3056239 34.6255926,61.2779146 C32.208826,59.9207442 25.742034,56.7630533 17.9096683,56.7630533 L17.9096683,56.7630533 Z M53.4716479,0 C47.810996,0 42.1645457,1.67405004 36.6885145,4.97568059 C36.4670748,5.10935217 36.2603626,5.27342973 36.0610143,5.45012863 C35.8769195,5.26998754 35.6854609,5.1018941 35.4808527,4.96248555 C32.7562497,3.10944181 27.0245898,0 19.2484257,0 C13.5877738,0 7.94079745,1.67405004 2.46581827,4.9751069 C1.01409932,5.85056966 0,7.74090375 0,9.57272067 L0,60.2824386 C0,62.3838934 1.37124322,63.9684466 3.19009979,63.9684466 C3.82022997,63.9684466 4.43931447,63.7751105 5.02946978,63.3953226 C9.01170317,60.8268777 13.4094648,59.5251575 18.1002002,59.5251575 C24.9942872,59.5251575 30.7064857,62.3282448 32.8430373,63.5341574 C33.2496238,63.7630628 33.667256,63.9076347 34.090148,63.9678729 C34.2395278,63.9890997 34.3862776,64 34.5335535,64 C34.6334906,64 34.72659,63.9776258 34.8238973,63.9684466 L37.413322,63.9684466 C38.0439782,63.9684466 38.6630627,63.7751105 39.253218,63.3953226 C43.2354514,60.8268777 47.633213,59.5251575 52.3239484,59.5251575 C59.2175095,59.5251575 64.9302339,62.3282448 67.0667855,63.5341574 C67.614862,63.8433805 68.1834519,64 68.7567757,64 C70.6056134,64 72,62.4016781 72,60.2824386 L72,9.57272067 C72,7.7787678 71.0563827,5.88269674 69.7046009,4.96248555 C66.979998,3.10944181 61.248338,0 53.4716479,0 Z" id="Fill-37"></path>
                        </g>
                    </g>
                </g>
            </g>
        </g>
    </g>
</svg>