<?xml version="1.0" encoding="UTF-8" standalone="no"?>
<svg width="919px" height="720px" viewBox="0 0 919 720" version="1.1" xmlns="http://www.w3.org/2000/svg" xmlns:xlink="http://www.w3.org/1999/xlink">
    <!-- Generator: Sketch 3.7.2 (28276) - http://www.bohemiancoding.com/sketch -->
    <title>Path</title>
    <desc>Created with Sketch.</desc>
    <defs></defs>
    <g id="Page-1" stroke="none" stroke-width="1" fill="none" fill-rule="evenodd">
        <g id="阅文集团-1" transform="translate(-1354.000000, -3032.000000)" fill="#232A30">
            <path d="M2238.44036,3114.25464 C2242.54633,3107.09725 2255.06032,3095.1955 2263.59056,3095.1955 C2268.33531,3096.80924 2263.6613,3108.65283 2268.699,3112.68275 C2269.32501,3112.94074 2273.14273,3117.56464 2272.43243,3117.98788 C2270.276,3123.71466 2266.48284,3161.22756 2268.89569,3162.78668 C2268.57345,3166.65392 2268.78585,3169.03199 2265.9484,3171.82504 C2262.81582,3176.52223 2255.257,3173.00395 2251.01526,3173.00395 C2249.4475,3175.56377 2244.64794,3177.34511 2243.74548,3180.07745 C2239.97766,3191.48385 2259.49344,3210.05551 2255.92761,3222.32193 C2255.73113,3223.71168 2253.28684,3233.76272 2252.78364,3235.68298 C2252.31227,3237.4826 2251.8185,3238.77331 2250.03303,3239.21973 C2250.03303,3239.96755 2242.6595,3237.56669 2241.38765,3237.45135 C2238.52937,3234.0213 2240.02246,3226.49156 2238.44036,3226.64463 C2236.29768,3226.91244 2234.61517,3230.18137 2234.31415,3230.18137 C2233.89249,3233.55641 2230.77426,3244.13345 2227.24066,3245.90025 C2225.18266,3248.47265 2220.47368,3248.84754 2217.41616,3248.84754 C2216.42528,3249.60716 2216.4465,3249.47237 2216.43393,3251.00889 C2219.69127,3252.97611 2221.50955,3256.58241 2221.34608,3259.06481 C2222.24284,3263.51502 2216.11483,3267.43197 2214.66555,3266.53128 C2208.05773,3266.53128 2203.22476,3262.99453 2197.37479,3262.99453 C2194.89808,3263.89896 2194.29251,3272.22937 2192.46264,3272.22937 C2190.87189,3278.59061 2185.15965,3282.49498 2181.65591,3287.75177 C2176.86637,3289.54411 2173.88842,3293.30741 2170.65269,3296.00418 C2170.65269,3299.29512 2168.05436,3303.42093 2167.7054,3307.20388 C2157.25765,3315.90998 2144.08818,3311.39178 2136.46394,3328.81734 C2136.25448,3332.58889 2131.55179,3339.95161 2131.55179,3340.01704 C2127.48688,3340.15261 2123.36009,3340.5169 2119.36965,3340.6065 C2119.05724,3336.85656 2122.06584,3330.19274 2126.44315,3330.19274 C2126.44315,3328.36581 2118.79631,3318.79655 2122.31694,3318.79655 C2122.70992,3311.15561 2131.10871,3309.01902 2128.80118,3300.32687 C2127.53974,3295.28111 2121.87407,3293.51942 2117.60128,3295.21823 C2117.60128,3295.42297 2085.02273,3334.9084 2084.9848,3334.9084 C2083.46066,3337.19511 2071.12174,3339.4547 2068.08681,3340.21352 C2064.14098,3343.59583 2061.67194,3352.1359 2067.69404,3355.14646 C2068.56251,3358.62092 2070.44484,3360.22346 2070.44484,3363.79184 C2071.83675,3364.52847 2081.72392,3359.38663 2086.75318,3361.43401 C2088.12013,3364.61708 2089.3073,3367.82963 2089.3073,3371.4548 C2090.34239,3373.21669 2095.56695,3378.63557 2097.55971,3378.92126 C2105.26962,3378.92126 2105.29595,3361.23753 2119.76282,3361.23753 C2125.95822,3359.46758 2131.44647,3366.04848 2138.62528,3363.98833 C2142.95544,3362.74556 2145.67932,3364.17656 2148.84275,3365.7567 C2148.84275,3366.87785 2149.69707,3374.99154 2146.6814,3374.99154 C2145.92198,3376.13077 2130.47485,3382.82171 2130.17658,3382.6545 C2131.51996,3384.93983 2116.69587,3400.02052 2114.65419,3398.56986 C2114.15334,3400.23901 2109.15238,3407.47716 2109.15238,3407.60822 C2108.43835,3408.14384 2106.99104,3410.24231 2106.99104,3410.94848 C2106.08897,3412.83278 2104.24043,3424.596 2104.24043,3424.89898 C2105.22266,3427.08784 2107.38401,3427.72465 2107.38401,3428.23925 C2129.15033,3431.18555 2130.02293,3464.21956 2137.83953,3468.1259 C2143.6899,3473.88392 2150.46788,3476.61488 2156.70219,3481.29046 C2164.25845,3485.46147 2149.14357,3485.86741 2148.84275,3488.36396 C2153.44602,3491.00787 2158.63679,3493.58105 2161.22137,3501.13555 C2161.02488,3509.68996 2142.23886,3517.23463 2138.03602,3521.96306 C2139.45426,3523.15357 2142.7564,3522.94549 2144.52006,3522.94549 C2149.19073,3514.17593 2162.87873,3520.83287 2169.27729,3523.33846 C2167.82408,3528.4414 2159.45299,3530.86741 2159.45299,3534.73465 C2161.04512,3534.73465 2165.59848,3529.64507 2167.11595,3532.18033 C2167.11595,3533.75674 2168.82125,3537.73892 2167.31243,3539.25383 C2165.10629,3541.87082 2162.96125,3539.71341 2161.02488,3541.41517 C2160.82839,3551.5566 2172.44916,3565.58295 2155.52327,3565.58295 C2150.47319,3574.32402 2149.24476,3575.53202 2148.84275,3587.19641 C2144.25087,3590.24646 2145.00616,3597.30561 2140.98331,3600.75394 C2138.72824,3600.68753 2134.77396,3600.52779 2134.1063,3601.93286 C2134.1063,3604.57029 2138.8367,3606.36362 2140.98331,3606.84501 C2140.47972,3611.10286 2134.03989,3609.27809 2135.87467,3615.09742 C2136.22874,3620.05633 2137.46208,3622.95037 2136.26765,3627.67252 C2126.86677,3628.34313 2133.52686,3636.21475 2126.24666,3639.85465 C2124.15939,3646.11843 2114.65556,3645.96792 2114.06453,3648.10706 C2112.06647,3650.27234 2102.408,3669.32755 2098.54214,3669.32755 C2093.79327,3671.23759 2083.80569,3672.95134 2083.80569,3678.36591 C2083.39759,3679.80045 2084.14384,3680.57244 2084.19886,3682.09914 C2074.69935,3687.48403 2062.29283,3700.15836 2049.81362,3696.24613 C2044.71539,3694.64791 2044.04656,3705.67726 2039.20337,3705.67726 C2036.49265,3708.19012 2029.57576,3701.00031 2029.57576,3698.80045 C2025.68632,3696.20762 2025.49848,3700.86964 2024.86009,3702.14071 C2022.77734,3710.47054 2009.09917,3719.23499 2000.69232,3719.23499 C1995.04531,3720.96289 1967.35356,3723.82824 1966.30727,3729.05929 C1966.11078,3731.46271 1964.42611,3736.72224 1961.39492,3736.72224 C1958.79659,3739.84008 1960.39186,3738.60576 1961.19863,3741.83088 C1962.8277,3741.8071 1964.11036,3741.98846 1965.32464,3742.22385 C1966.15951,3743.68885 1965.99918,3747.77438 1965.71781,3749.49383 C1961.88967,3751.60861 1960.39972,3751.43551 1955.89351,3751.26221 C1954.02139,3750.69122 1950.48661,3742.53941 1948.82002,3740.45548 C1942.40495,3737.25079 1948.84988,3730.72805 1949.21279,3727.09443 C1944.04698,3728.18178 1941.05332,3730.29597 1937.03066,3730.63118 C1936.34001,3730.25098 1927.7017,3717.34637 1927.40304,3723.95065 C1929.49739,3724.99714 1930.06445,3726.91111 1927.40304,3727.29092 C1927.40304,3728.53919 1912.3921,3726.81896 1911.09471,3726.70146 C1906.05995,3726.70146 1887.47375,3721.59046 1889.08828,3713.5369 C1888.12314,3711.09517 1890.43362,3705.36544 1890.46368,3702.73017 C1887.20594,3701.18618 1869.24319,3697.88345 1869.24319,3697.81802 C1866.30808,3697.08395 1867.02251,3693.6421 1865.31347,3693.10235 C1864.40669,3692.2948 1860.72336,3693.34993 1860.20484,3693.69181 C1858.73768,3695.89246 1852.80989,3703.31963 1849.59459,3703.31963 C1846.71372,3703.69609 1844.45432,3703.29074 1842.12793,3705.28449 C1842.12793,3710.49903 1835.15896,3708.42826 1832.89328,3708.42826 C1832.05331,3707.42048 1830.03186,3706.24235 1829.55302,3705.28449 C1828.70126,3705.28449 1821.89007,3707.23186 1821.89007,3707.44563 C1816.93961,3708.92105 1813.50031,3704.30206 1809.11848,3704.30206 C1808.36633,3705.30453 1805.02528,3708.99119 1804.20633,3709.01772 C1802.7038,3710.29507 1795.39295,3707.23284 1793.98906,3708.42826 C1791.93342,3708.89629 1792.34722,3711.08318 1792.41717,3713.5369 C1794.596,3715.4381 1795.11099,3722.42337 1794.97149,3724.93308 C1796.98626,3724.93308 1796.86778,3734.97273 1796.34689,3736.32927 C1795.69338,3739.59683 1793.01351,3738.52441 1790.45231,3738.09765 C1785.12518,3736.83562 1782.20187,3731.17348 1782.1999,3726.112 C1782.19853,3722.57859 1781.80496,3724.43912 1780.03855,3721.78931 C1774.55542,3721.78931 1774.70946,3727.29092 1771.19669,3727.29092 C1768.62193,3727.27264 1768.23898,3726.30338 1765.89156,3726.112 C1765.01465,3722.0693 1755.67429,3714.76474 1755.67429,3714.51933 C1754.19181,3713.98803 1750.40316,3715.38485 1749.38674,3714.51933 C1748.24241,3714.20809 1746.59153,3712.02808 1746.24297,3710.98238 C1745.22556,3706.05648 1747.07744,3697.56298 1745.45722,3693.49533 C1742.96892,3692.66576 1741.32689,3692.66557 1739.56264,3690.54804 C1736.38978,3688.43326 1735.26411,3676.87183 1731.89949,3672.66781 C1726.39965,3668.98056 1723.6681,3675.81159 1719.32439,3675.81159 C1713.27635,3674.39512 1715.77585,3671.10339 1714.60872,3665.39783 C1712.70713,3658.66819 1716.06625,3654.26769 1717.55601,3648.30355 C1717.94898,3644.44614 1728.4934,3639.76564 1731.11354,3636.90736 C1734.16497,3634.98828 1740.8789,3605.47668 1737.20461,3601.3434 C1737.20461,3599.27401 1729.73814,3596.58412 1729.73814,3594.46639 C1729.13552,3594.01447 1728.50048,3592.10856 1728.36274,3592.10856 C1728.36274,3586.19394 1726.19825,3584.09704 1722.86113,3579.92643 C1720.70057,3579.38609 1718.16807,3578.40582 1716.57378,3580.3194 C1712.92326,3582.14436 1716.70405,3591.69692 1711.07197,3592.50153 C1707.38197,3593.69734 1703.19976,3586.70303 1699.67579,3584.24912 C1696.32963,3584.24912 1689.51216,3579.04303 1685.72528,3577.96157 C1682.3526,3578.78995 1677.42218,3583.64178 1675.11504,3586.41046 C1665.32414,3587.4595 1656.70568,3599.49014 1647.607,3602.52232 C1643.89184,3604.5025 1618.88193,3609.52724 1614.07058,3602.52232 C1612.07369,3600.56433 1614.40539,3593.22676 1614.59755,3590.53667 C1611.27556,3588.32168 1609.25215,3587.34122 1609.29243,3582.67723 C1608.04239,3581.97126 1600.25388,3580.38483 1600.25388,3580.3194 C1593.64979,3578.6699 1589.17482,3568.92321 1580.60528,3568.92321 C1580.60528,3568.85759 1567.46292,3573.22586 1565.86883,3575.99671 C1565.86883,3578.53963 1566.71117,3582.80711 1565.27937,3585.03506 C1561.04805,3587.15141 1560.95766,3587.26223 1556.04453,3585.62452 C1553.09017,3579.71304 1556.13492,3575.4491 1556.24102,3569.70916 C1553.24539,3567.71286 1546.9376,3567.6655 1543.66591,3568.92321 C1540.33666,3569.5891 1537.29112,3573.95718 1533.44864,3572.85293 C1529.26408,3571.56556 1526.98484,3567.92546 1524.2138,3564.60052 C1518.42984,3563.44341 1513.72715,3563.72773 1507.90547,3563.61809 C1503.42028,3559.54061 1499.44458,3552.86127 1495.72333,3547.89921 C1492.52729,3545.86047 1488.64689,3547.9611 1485.50606,3543.77301 C1481.8526,3539.54581 1479.67495,3532.17601 1479.415,3527.26818 C1476.96128,3525.63185 1469.98799,3527.27683 1468.80475,3524.91035 C1467.28297,3524.91035 1463.8926,3518.26362 1463.8926,3517.2474 C1460.8901,3514.99547 1455.52112,3513.44952 1453.28236,3510.76336 C1452.88939,3508.18998 1444.76332,3498.61738 1444.63698,3498.58123 C1436.35038,3499.96154 1426.63218,3504.49094 1420.27272,3496.2234 C1418.38291,3494.16462 1417.91488,3489.54287 1417.91488,3485.80964 C1409.46166,3479.04738 1406.80242,3470.68022 1395.12251,3470.68022 C1392.73088,3469.99547 1393.33095,3469.85851 1391.97873,3468.71536 C1392.32592,3464.66343 1391.59637,3462.44274 1394.53305,3459.87349 C1398.85751,3456.59669 1396.10494,3444.08309 1396.10494,3440.02841 C1395.90845,3434.74647 1395.35711,3437.20176 1396.89088,3434.13383 C1401.40574,3434.13383 1404.36285,3437.57331 1408.28707,3437.67057 C1408.75392,3435.99553 1409.2695,3437.05164 1409.2695,3434.91977 C1409.46618,3426.94519 1407.01934,3420.24541 1405.73275,3412.52037 C1403.572,3406.52519 1410.25193,3403.26843 1410.25193,3398.56986 C1409.75639,3395.69606 1409.24966,3395.59919 1408.09058,3394.64014 C1400.79015,3393.18143 1399.81145,3384.1755 1401.41006,3378.52829 C1403.25664,3372.00594 1382.64978,3355.64436 1378.81417,3359.07618 C1377.30968,3358.96909 1375.30081,3356.35092 1375.47391,3356.12889 C1375.47391,3352.43515 1378.96075,3342.35463 1377.0458,3339.23109 C1374.0769,3337.74605 1364.63181,3329.99291 1362.50584,3327.44194 C1358.18236,3321.48821 1362.88073,3316.24675 1368.40042,3314.86683 C1371.43671,3308.78913 1369.9723,3302.45776 1369.9723,3296.00418 C1369.77582,3288.9519 1362.07789,3293.55243 1358.18334,3293.64635 C1355.35768,3291.58285 1352.20427,3290.12728 1355.23585,3283.42908 C1361.36622,3282.09061 1359.71357,3274.39072 1356.80774,3274.39072 C1355.99193,3272.71352 1363.34758,3268.58299 1364.27421,3264.56642 C1369.76305,3264.56642 1386.64728,3249.92546 1396.49791,3253.17023 C1403.34957,3254.31103 1397.9468,3262.57464 1407.10815,3262.99453 C1420.38412,3251.93296 1427.26939,3251.20537 1444.24401,3251.20537 C1445.66067,3250.53673 1462.32072,3248.82102 1462.32072,3247.86511 C1467.79108,3245.01548 1468.16441,3242.42481 1467.62584,3239.21973 C1468.17639,3238.7794 1483.39698,3220.1429 1483.5412,3219.76762 C1485.34219,3211.77909 1485.71984,3203.56833 1484.13066,3195.40335 C1485.13549,3192.85061 1485.5041,3189.36003 1483.34472,3187.7404 C1481.55355,3185.18255 1482.78905,3183.22122 1485.89903,3183.22122 C1498.28708,3179.44535 1508.12533,3186.75797 1519.69462,3186.75797 C1522.94883,3182.59109 1516.53847,3172.2241 1528.34001,3166.32343 C1530.08107,3163.56457 1535.98567,3152.64034 1536.39593,3150.99752 C1538.02755,3148.84561 1540.74987,3149.61583 1542.87997,3149.81861 C1542.87997,3155.20546 1568.09718,3159.01592 1569.20929,3158.85696 C1573.03271,3158.42174 1573.86188,3157.57902 1574.90719,3154.1413 C1574.97262,3154.1413 1574.56078,3141.85306 1575.30016,3140.19079 C1577.6126,3131.73404 1589.91832,3132.56733 1596.52064,3130.36649 C1600.21045,3127.09579 1598.76727,3120.73868 1606.54143,3120.73868 C1610.21552,3119.58707 1615.77627,3121.90895 1615.77627,3126.24029 C1616.06255,3128.66473 1617.54464,3131.91991 1617.54464,3133.31378 C1616.47596,3136.41374 1631.42756,3148.1078 1634.04966,3147.65726 C1636.32104,3148.27678 1642.9772,3152.08507 1643.4808,3153.74832 C1643.4808,3158.20856 1644.14904,3167.41393 1647.41051,3169.86018 C1648.61026,3175.86302 1653.47093,3185.35565 1646.62457,3190.4912 C1640.44214,3197.31398 1639.13453,3202.1888 1645.05268,3208.7644 C1648.68374,3211.40085 1655.62088,3212.20939 1660.37859,3213.28358 C1663.28639,3213.11342 1711.36415,3230.40635 1709.50028,3242.3635 C1709.91585,3246.753 1711.60563,3254.12476 1715.98412,3256.31401 C1716.3771,3257.30017 1716.11832,3265.54885 1717.35953,3265.54885 C1718.86598,3267.31722 1718.99684,3267.51371 1719.1279,3267.7102 C1724.44343,3267.7102 1730.3834,3270.06803 1736.61535,3270.06803 C1741.37542,3271.48587 1750.71675,3275.17666 1754.69186,3275.17666 C1766.38553,3275.56964 1777.34434,3274.98018 1788.68394,3274.98018 C1800.35108,3276.63518 1806.43625,3288.45853 1815.01306,3289.71663 C1818.91291,3285.301 1827.26593,3291.44649 1828.96357,3293.84283 C1837.38122,3294.03932 1839.38459,3298.61332 1844.28947,3302.29173 C1845.32436,3303.67185 1846.48049,3303.87246 1848.21919,3303.86362 C1850.70199,3296.41916 1899.89481,3285.91954 1899.89481,3278.71341 C1908.17394,3276.25007 1918.6885,3282.94493 1928.18879,3281.07124 C1929.5803,3276.9024 1938.48996,3268.49378 1941.74652,3265.54885 C1945.56994,3262.09109 1960.67146,3250.91261 1958.8408,3248.84754 C1957.37168,3243.53279 1948.36181,3220.28182 1962.37755,3220.35707 C1962.52865,3220.57517 1979.66812,3231.4214 1979.66812,3227.23408 C1984.50462,3227.23408 1994.02948,3215.50859 1995.19071,3211.12223 C2000.93792,3209.98222 2011.19646,3209.76353 2013.85668,3204.44171 C2017.59895,3201.60701 2021.05219,3191.67012 2022.10909,3191.67012 C2024.71194,3188.54678 2029.27926,3187.51955 2033.1125,3186.56148 C2035.47132,3184.15375 2042.32102,3178.70205 2044.50849,3178.70205 C2044.50849,3177.68366 2063.71186,3177.31662 2066.51512,3176.5407 C2066.54283,3174.06203 2065.92566,3171.2511 2065.92566,3169.4672 C2063.50201,3161.74079 2054.02156,3156.97973 2046.47355,3152.76589 C2043.20226,3152.6763 2042.00939,3156.49913 2037.63168,3156.49913 C2035.69728,3158.70979 2035.43025,3160.77781 2033.50548,3163.17965 C2028.95054,3162.98985 2020.56176,3159.15031 2017.59011,3160.03588 C2013.10178,3160.23236 2009.39311,3164.03574 2002.46069,3163.76911 C2001.48533,3161.94572 1999.96355,3160.86367 1999.90637,3158.07102 C2002.48781,3155.12098 2006.91365,3151.50622 2005.60447,3147.0678 C2005.60447,3137.59109 2008.36136,3131.52301 2010.31993,3121.72111 C2011.5293,3120.31525 2012.83358,3119.04438 2014.24985,3118.57733 C2023.79023,3118.57733 2033.9906,3119.45445 2040.77546,3111.70032 C2042.54383,3104.95358 2046.08058,3097.28061 2046.08058,3091.26578 C2046.27687,3083.47963 2055.28929,3070.24178 2055.51171,3070.24178 C2057.85716,3064.76532 2051.25602,3058.88096 2046.86633,3056.68425 C2046.86633,3056.32527 2046.69086,3054.5229 2046.47355,3054.5229 C2047.33475,3048.92325 2047.7902,3048.22965 2051.58199,3045.28806 C2055.86833,3044.21682 2059.84265,3042.92709 2063.96061,3041.55483 C2066.48015,3036.51575 2081.1663,3032.1235 2086.75318,3032.1235 C2090.66993,3031.25326 2095.14313,3035.26728 2098.93531,3035.26728 C2106.11903,3035.12698 2110.09728,3034.52318 2116.42256,3037.23214 C2117.8072,3038.00865 2139.60791,3060.69099 2139.60791,3064.93666 C2140.52471,3066.37749 2140.85225,3066.6396 2141.1798,3066.90152 C2144.41238,3070.23373 2147.98155,3073.75829 2151.20058,3076.33285 C2151.39707,3082.18165 2154.21153,3084.97627 2157.88091,3087.72903 C2158.83328,3089.96603 2160.07487,3096.76739 2162.00731,3096.76739 C2166.55007,3097.16036 2174.70974,3096.20937 2178.11916,3097.55333 C2178.11916,3099.5013 2186.60991,3097.60678 2189.12218,3098.33928 C2189.12218,3098.7348 2192.57287,3100.12199 2193.0521,3100.69711 C2193.46727,3104.56277 2201.34714,3106.74534 2205.82349,3107.7706 C2205.82349,3112.24714 2212.33661,3125.25786 2217.61284,3125.25786 C2225.95819,3127.84224 2233.60838,3119.00351 2238.44036,3114.25464 Z" id="Path"></path>
        </g>
    </g>
</svg>