<?xml version="1.0" encoding="UTF-8" standalone="no"?>
<svg width="519px" height="763px" viewBox="0 0 519 763" version="1.1" xmlns="http://www.w3.org/2000/svg" xmlns:xlink="http://www.w3.org/1999/xlink">
    <!-- Generator: Sketch 3.8.1 (29687) - http://www.bohemiancoding.com/sketch -->
    <title>half-sino</title>
    <desc>Created with Sketch.</desc>
    <defs></defs>
    <g id="Page-1" stroke="none" stroke-width="1" fill="none" fill-rule="evenodd">
        <path d="M190.989952,761.816111 C192.284402,763.261855 209.217171,756.613556 212.800093,749.437494 C217.65762,735.454766 222.734032,729.294341 220.856019,726.64512 C220.289942,724.380619 214.904067,720.354693 212.800095,719.934017 C211.566751,719.430903 210.183241,719.15418 208.697222,719.049466 C209.641379,718.620199 210.620213,718.100178 211.717811,717.493832 C211.999179,715.774383 212.159511,711.68885 211.324642,710.223851 C210.110359,709.988461 208.827698,709.807104 207.198633,709.830879 C206.391862,706.605758 204.796592,707.840083 207.394923,704.722243 C210.426112,704.722243 212.110783,699.462706 212.307269,697.05929 C213.353557,691.828243 241.045309,688.962888 246.692316,687.23499 C255.099166,687.23499 268.777341,678.470537 270.860092,670.14071 C271.498475,668.869642 271.686316,664.207619 275.575756,666.800448 C275.575756,669.000305 282.492652,676.19012 285.203373,673.677261 C290.046556,673.677261 290.715394,662.647913 295.813616,664.24613 C308.292834,668.158363 320.699352,655.484034 330.19886,650.099139 C330.143844,648.572443 329.39759,647.80045 329.805692,646.365906 C329.805692,640.951341 339.793271,639.23759 344.54214,637.32755 C348.408002,637.32755 358.066467,618.272339 360.064533,616.107064 C360.655563,613.967921 370.159394,614.118429 372.246664,607.854652 C379.526863,604.21475 372.866774,596.343128 382.267646,595.672521 C383.462084,590.950374 382.228742,588.056332 381.874674,583.097418 C380.039888,577.278093 386.479716,579.102858 386.98331,574.845007 C384.8367,574.363616 380.1063,572.570289 380.1063,569.932857 C380.77396,568.527786 384.72824,568.687529 386.98331,568.753941 C391.006164,565.305612 390.250872,558.24646 394.842749,555.196408 C395.244759,543.532018 396.47319,542.324022 401.523273,533.58295 C418.449165,533.58295 406.828394,519.556601 407.02488,509.415174 C408.96125,507.713409 411.106287,509.870825 413.312432,507.253828 C414.821248,505.738921 413.115946,501.75674 413.115946,500.180333 C411.598484,497.645074 407.045118,502.73465 405.452992,502.73465 C405.452992,498.867413 413.824081,496.441401 415.277292,491.338463 C408.878725,488.832874 395.190726,482.175929 390.520057,490.945491 C388.756399,490.945491 385.454256,491.15357 384.03602,489.963061 C388.238855,485.234626 407.02488,477.689957 407.221366,469.135547 C404.63679,461.581054 399.446023,459.007873 394.842749,456.363958 C395.143569,453.867407 410.25845,453.461467 402.702189,449.290462 C396.467885,444.614882 389.689904,441.883923 383.839534,436.125901 C376.022928,432.219563 375.150334,399.185554 353.38401,396.239246 C353.38401,395.72465 351.222664,395.087838 350.24043,392.898985 C350.24043,392.596003 352.088971,380.83278 352.991038,378.94848 C352.991038,378.242309 354.438354,376.143839 355.152384,375.608218 C355.152384,375.477162 360.153345,368.239011 360.654188,366.569863 C362.695874,368.020519 377.519955,352.939826 376.176581,350.654498 C376.474846,350.821707 391.921985,344.13077 392.681403,342.991544 C395.69707,342.991544 394.842749,334.877852 394.842749,333.756703 C391.679325,332.176563 388.95544,330.745555 384.625281,331.988329 C377.446469,334.048485 371.958223,327.46758 365.762823,329.237525 C351.295953,329.237525 351.269624,346.921264 343.55971,346.921264 C341.56695,346.635573 336.342387,341.216686 335.307299,339.454797 C335.307299,335.82963 334.120131,332.617084 332.753178,329.434011 C327.723922,327.386627 317.836748,332.528469 316.444841,331.791843 C316.444841,328.223461 314.562505,326.620921 313.694037,323.14646 C307.671938,320.135902 310.140981,311.595835 314.086813,308.213525 C317.121735,307.454696 329.460662,305.195107 330.984804,302.908403 C331.022726,302.908403 363.601281,263.422973 363.601281,263.218234 C367.874065,261.519416 373.539739,263.28111 374.801179,268.32687 C377.10871,277.019017 368.709917,279.155606 368.316945,286.796553 C364.796309,286.796553 372.44315,296.365813 372.44315,298.19274 C368.065836,298.19274 365.057242,304.856562 365.369655,308.606497 C369.360089,308.516899 373.486884,308.152614 377.551786,308.017039 C377.551786,307.951609 382.254481,300.588886 382.463936,296.817338 C390.088181,279.391782 403.257654,283.909977 413.705404,275.203879 C414.054363,271.420935 416.652693,267.295122 416.652693,264.004178 C419.888425,261.307408 422.866366,257.544112 427.655909,255.751767 C431.159647,250.494981 436.871887,246.590608 438.462638,240.229374 C440.292512,240.229374 440.898082,231.898958 443.374787,230.994533 C449.224765,230.994533 454.05773,234.53128 460.665554,234.53128 C462.114835,235.431972 468.24284,231.515024 467.346078,227.064813 C467.509554,224.582409 465.691273,220.976105 462.433928,219.008888 C462.446503,217.472367 462.425283,217.607157 463.416161,216.847542 C466.47368,216.847542 471.182663,216.472646 473.240657,213.900252 C476.774261,212.13345 479.892494,201.556413 480.314153,198.181373 C480.615169,198.181373 482.297679,194.912436 484.440358,194.644625 C486.022464,194.491563 484.529367,202.021299 487.387648,205.451355 C488.659502,205.566692 496.033032,207.967554 496.033032,207.219728 C497.8185,206.773312 498.312269,205.482596 498.783639,203.682981 C499.286839,201.762723 501.731125,191.711679 501.927611,190.321934 C505.493439,178.05551 485.977665,159.483851 489.74548,148.077447 C490.64794,145.345113 495.447503,143.563771 497.015265,141.003951 C501.257004,141.003951 508.81582,144.522229 511.948396,139.825036 C514.78585,137.031987 514.573449,134.653917 514.895686,130.78668 C512.482838,129.227564 516.276,91.7146561 518.432434,85.9878756 C519.142731,85.5646447 515.325008,80.9407401 514.699004,80.682754 C509.661299,76.6528264 514.335308,64.8092407 509.590565,63.1955013 C501.060322,63.1955013 488.546326,75.0972469 484.440358,82.2546418 C479.608375,87.0035116 471.958193,95.8422372 463.612844,93.257857 C458.336606,93.257857 451.823488,80.2471445 451.823488,75.7706043 C447.347145,74.7453405 439.467271,72.5627741 439.052096,68.6971089 C438.572866,68.1219944 435.12218,66.7348033 435.12218,66.339277 C432.60991,65.6067773 424.119161,67.5012952 424.119161,65.5533331 C420.709736,64.209369 412.550066,65.1603611 408.00731,64.7673892 C406.07487,64.7673892 404.833276,57.9660268 403.880908,55.7290338 C400.211532,52.9762652 397.397067,50.181645 397.200581,44.3328467 C393.981551,41.7582908 390.412383,38.2337252 387.179796,34.9015194 C386.852254,34.6396036 386.524711,34.3774913 385.607908,32.9366595 C385.607908,28.6909904 363.807198,6.00864823 362.422562,5.23213562 C356.097285,2.52318334 352.119033,3.12698477 344.935309,3.26727576 C341.143129,3.26727576 336.669929,-0.746736429 332.753178,0.1235 L0,0.1235 L0,761.816111 C0,761.816111 187.941472,762.722305 190.989952,761.816111 Z M401.130301,658.31641 C396.625466,652.911278 393.74734,651.437436 391.895459,644.955364 C392.441494,639.490892 393.144128,634.667357 393.467151,628.843513 L393.663833,628.843513 C393.663833,621.863348 397.200581,620.469673 397.200581,614.500036 L397.397067,614.500036 C397.397067,608.23901 403.649054,596.792326 408.793254,592.297119 C409.564462,591.217232 416.505133,589.992732 418.224385,590.725232 C430.776303,592.518363 422.743563,599.854953 422.743563,605.265194 L422.547273,605.265194 C422.547273,612.99456 425.626208,624.169897 423.529506,631.201345 C423.529506,634.275957 420.582413,636.797265 420.582413,639.060784 C418.863161,641.662062 412.919263,642.427375 412.919263,646.723737 L412.722777,646.723737 C409.901042,654.218499 413.436414,659.089386 407.02488,666.568822 L406.828394,666.372336 L406.631908,666.372336 C406.631908,664.074432 401.731155,661.554893 401.326787,658.31641 L401.130301,658.31641 L401.130301,658.31641 Z" id="half-sino" fill="#232A30"></path>
    </g>
</svg>