<?xml version="1.0" encoding="UTF-8" standalone="no"?>
<svg width="63px" height="67px" viewBox="0 0 63 67" version="1.1" xmlns="http://www.w3.org/2000/svg" xmlns:xlink="http://www.w3.org/1999/xlink">
    <!-- Generator: Sketch 3.7.2 (28276) - http://www.bohemiancoding.com/sketch -->
    <title>icon_user</title>
    <desc>Created with Sketch.</desc>
    <defs></defs>
    <g id="Page-1" stroke="none" stroke-width="1" fill="none" fill-rule="evenodd">
        <g id="阅文集团-2" transform="translate(-1471.000000, -582.000000)" stroke="#019EE4" stroke-width="3">
            <g id="about" transform="translate(0.000000, 511.000000)">
                <g id="Group-2" transform="translate(810.000000, 59.000000)">
                    <g id="2" transform="translate(660.000000, 14.000000)">
                        <g id="icon_user" transform="translate(3.000000, 0.000000)">
                            <path d="M36.0986458,39.5516042 C36.0986458,39.5516042 40.8358958,34.8618958 41.8683958,28.555625 C44.6457917,28.555625 46.361375,21.8512292 43.5833958,19.492375 C43.6997708,17.0092708 47.1535417,0 29.6666667,0 C12.1796458,0 15.6338542,17.0092708 15.7495,19.492375 C12.9718125,21.8512292 14.6871042,28.555625 17.4646458,28.555625 C18.497,34.8618958 23.2343958,39.5516042 23.2343958,39.5516042 C23.2343958,39.5516042 23.1976458,43.9846458 21.5854583,44.2411667 C19.1342885,44.6311787 10.8463038,45.6466285 7.00155602,48.7221983 C2.70070086,52.1626269 1.05012787,56.1086936 1.05012787,56.1086936 C-1.18669599,59.914657 0.582299746,63 4.99480015,63 L54.3385332,63 C58.7539394,63 60.5751745,59.8830273 58.2521385,56.1138876 C58.2521385,56.1138876 56.5156343,52.053577 52.1422676,48.5705696 C48.3483923,45.5490768 40.1599793,44.6249985 37.7475833,44.2411667 C36.1353958,43.9846458 36.0986458,39.5516042 36.0986458,39.5516042 Z" id="Shape"></path>
                        </g>
                    </g>
                </g>
            </g>
        </g>
    </g>
</svg>