<?xml version="1.0" encoding="UTF-8" standalone="no"?>
<svg width="70px" height="62px" viewBox="0 0 70 62" version="1.1" xmlns="http://www.w3.org/2000/svg" xmlns:xlink="http://www.w3.org/1999/xlink">
    <!-- Generator: Sketch 3.7.2 (28276) - http://www.bohemiancoding.com/sketch -->
    <title>icon_book</title>
    <desc>Created with Sketch.</desc>
    <defs></defs>
    <g id="Page-1" stroke="none" stroke-width="1" fill="none" fill-rule="evenodd">
        <g id="阅文集团-1" transform="translate(-1141.000000, -583.000000)" stroke="#019EE4" stroke-width="3">
            <g id="about" transform="translate(0.000000, 511.000000)">
                <g id="Group-2" transform="translate(810.000000, 59.000000)">
                    <g id="3" transform="translate(330.000000, 15.000000)">
                        <g id="icon_book" transform="translate(3.000000, 0.000000)">
                            <path d="M1,57.9999987 C0.937015292,58.0400889 0,57.1255753 0,56.9999987 L0,6.00000016 C0,5.4080805 0.540103037,5.27650446 1,5.00000016 C6.16420309,1.90067581 11.7136283,0 17,0 C24.2155499,0 30.2395084,2.84883181 33.0000011,5.00000016 C33.0000011,5.00000016 33.0488685,58.0277081 33.0000011,57.9999987 C30.5832344,56.6428284 23.8323657,53.9999987 16.0000001,53.9999987 C10.5664831,53.9999987 5.61851661,55.0350944 1,57.9999987 Z" id="Fill-37"></path>
                            <path d="M34,57.9999987 C33.9370153,58.0400889 33,57.1255753 33,56.9999987 L33,6.00000016 C33,5.4080805 33.540103,5.27650446 34,5.00000016 C39.1642031,1.90067581 44.7136283,0 50,0 C57.2155499,0 63.2395084,2.84883181 66.0000011,5.00000016 C66.0000011,5.00000016 66.0488685,58.0277081 66.0000011,57.9999987 C63.5832344,56.6428284 56.8323657,53.9999987 49.0000001,53.9999987 C43.5664831,53.9999987 38.6185166,55.0350944 34,57.9999987 Z" id="Fill-37-Copy" transform="translate(49.510860, 29.000639) scale(-1, 1) translate(-49.510860, -29.000639) "></path>
                        </g>
                    </g>
                </g>
            </g>
        </g>
    </g>
</svg>