<?xml version="1.0" encoding="UTF-8" standalone="no"?>
<svg width="29px" height="28px" viewBox="0 0 29 28" version="1.1" xmlns="http://www.w3.org/2000/svg" xmlns:xlink="http://www.w3.org/1999/xlink">
    <!-- Generator: Sketch 3.8.1 (29687) - http://www.bohemiancoding.com/sketch -->
    <desc>Created with Sketch.</desc>
    <defs></defs>
    <g id="Page-1" stroke="none" stroke-width="1" fill="none">
        <g id="QQ-阅读" transform="translate(-423.000000, -416.000000)" fill="#FFFFFF">
            <g id="header">
                <g id="android" transform="translate(405.000000, 402.000000)">
                    <path d="M45.1320621,33.4905167 C45.1320621,33.4905167 44.8805605,28.7202879 36.5998745,23.342057 C35.6664188,22.736211 35.1784002,21.5741077 35.1784002,20.3742739 C35.1784002,18.2710611 36.8836087,16.565637 38.9873605,16.565637 C40.0391825,16.565637 40.9780282,17.0054682 41.6805724,17.6813854 C43.1826825,19.1259293 48.114614,23.8239309 45.1320621,33.4905167 Z M37.6211885,15.0812064 C37.6211885,15.0812064 32.8463242,15.2191927 27.2745891,23.3711634 C26.6464281,24.2896346 25.4730057,24.7499482 24.2737109,24.7219198 C22.1708215,24.672331 20.5060386,22.9270201 20.555843,20.8238073 C20.5807453,19.77274 21.0426759,18.8434886 21.7347633,18.1578693 C23.2144506,16.690687 28.0281236,11.8708693 37.6211885,15.0812064 Z M18.9404333,22.31794 C18.9404333,22.31794 19.1919349,27.0881689 27.4725132,32.4663998 C28.4059688,33.0722458 28.8940953,34.234349 28.8940953,35.4341828 C28.8940953,37.5373956 27.1887789,39.2428198 25.0851349,39.2428198 C24.0333129,39.2428198 23.0943594,38.8029885 22.3918152,38.1270714 C20.889813,36.6825275 15.9578814,31.9845258 18.9404333,22.31794 Z M26.6226039,41.0301734 C26.6226039,41.0301734 31.3941264,40.8027116 36.8132142,32.5494072 C37.4241269,31.6190778 38.5887095,31.1361258 39.7884356,31.1425939 C41.8919717,31.1533741 43.5887718,32.8674224 43.578315,34.9706352 C43.5730327,36.0227806 43.1283504,36.9595781 42.4490913,37.6581336 C40.9968935,39.1533443 36.2737741,44.0615595 26.6226039,41.0301734 Z" id="Combined-Shape"></path>
                </g>
            </g>
        </g>
    </g>
</svg>