<?xml version="1.0" encoding="UTF-8" standalone="no"?>
<svg width="24px" height="29px" viewBox="0 0 24 29" version="1.1" xmlns="http://www.w3.org/2000/svg" xmlns:xlink="http://www.w3.org/1999/xlink">
    <!-- Generator: Sketch 3.8.1 (29687) - http://www.bohemiancoding.com/sketch -->
    <desc>Created with Sketch.</desc>
    <defs></defs>
    <g id="Page-1" stroke="none" stroke-width="1" fill="none">
        <g id="QQ-阅读" transform="translate(-256.000000, -414.000000)" fill="#FFFFFF">
            <g id="header">
                <g id="iOS" transform="translate(240.000000, 402.000000)">
                    <path d="M31.9977961,16.6170968 C33.0092326,15.3948387 33.6880361,13.6964516 33.5023804,12 C32.0509787,12.0570968 30.286283,12.9716129 29.2477717,14.1890323 C28.3156257,15.273871 27.4985474,17.0012903 27.7151457,18.66 C29.3357648,18.7858065 30.9911944,17.8374194 31.9977961,16.6170968 M39.5100813,33.1964516 C39.4743039,33.2951613 38.9018657,35.2703226 37.5084813,37.3035484 C36.3084883,39.0658065 35.0572465,40.8222581 33.088523,40.8570968 C31.1584778,40.8948387 30.5367248,39.7112903 28.3262622,39.7112903 C26.1167665,39.7112903 25.4263596,40.8222581 23.5968778,40.8948387 C21.6958413,40.9693548 20.2541091,38.9912903 19.0386448,37.2377419 C16.5564674,33.6503226 14.6651004,27.0977419 17.2052952,22.6790323 C18.4720083,20.4822581 20.7279178,19.0945161 23.1801196,19.0567742 C25.0482796,19.0258065 26.8062065,20.3119355 27.9462483,20.3119355 C29.087257,20.3119355 31.2232639,18.7567742 33.4733717,18.9851613 C34.4113196,19.0277419 37.0549787,19.3654839 38.7548883,21.8516129 C38.6146796,21.9406452 35.5997091,23.6941935 35.6325857,27.3512903 C35.670297,31.7235484 39.4656013,33.1790323 39.5100813,33.1964516" id="logo"></path>
                </g>
            </g>
        </g>
    </g>
</svg>