<?xml version="1.0" encoding="UTF-8" standalone="no"?>
<svg width="43px" height="64px" viewBox="0 0 43 64" version="1.1" xmlns="http://www.w3.org/2000/svg" xmlns:xlink="http://www.w3.org/1999/xlink">
    <!-- Generator: Sketch 3.7.2 (28276) - http://www.bohemiancoding.com/sketch -->
    <title>Combined Shape</title>
    <desc>Created with Sketch.</desc>
    <defs></defs>
    <g id="Page-1" stroke="none" stroke-width="1" fill="none" fill-rule="evenodd">
        <g id="阅文集团-2" transform="translate(-811.000000, -582.000000)" fill="#019EE4">
            <g id="about" transform="translate(0.000000, 511.000000)">
                <g id="Group-2" transform="translate(810.000000, 59.000000)">
                    <g id="1">
                        <path d="M26.3335145,76 C26.8465099,76 27.3126103,75.7056895 27.5367564,75.2448129 L43.5367267,41.9102058 C43.7320235,41.5013291 43.7060235,41.0208634 43.4690555,40.6341877 L33.1903903,23.9323362 L38.1929558,13.9296984 C38.3985813,13.5169039 38.3778051,13.0259907 38.1356133,12.6327853 C37.8908097,12.2395799 37.4611568,12 37.0001614,12 L6.33346261,12 C5.84907912,12 5.40244904,12.262968 5.16678698,12.6875159 C4.93243084,13.1106391 4.94537148,13.6288582 5.20323446,14.0403467 L11.431124,24.0052312 L1.19804782,40.6341877 C0.959773877,41.0208634 0.935079817,41.5013291 1.13168253,41.9102058 L17.1316528,75.2448129 C17.3529496,75.7056895 17.8204747,76 18.33347,76 M23.6667935,73.3332789 L23.6667927,46.6161305 C23.6667927,45.8791078 23.0698024,46.8045174 22.3327797,46.8045174 C21.595757,46.8045174 21.0000732,45.8791078 21.0000732,46.6161305 L21.0000724,73.3332789 L19.1719996,73.3332789 L3.8504036,41.4127629 L13.7448862,25.333368 L30.9219796,25.333368 L40.8151563,41.4127629 L25.4948663,73.3332789 M13.7397812,22.6666469 L8.73970884,14.6666024 L34.8439426,14.6666024 L30.8439797,22.6666469 M29.0001169,39.9999777 C29.0001169,36.3241244 26.0104735,33.3332938 22.3334329,33.3332938 C18.6575796,33.3332938 15.6667489,36.3241244 15.6667489,39.9999777 C15.6667489,43.6758311 18.6576983,46.6666617 22.3334329,46.6666617 C26.0105922,46.6666617 29.0001169,43.6758311 29.0001169,39.9999777 Z M26.3333958,39.9999777 C26.3333958,42.2057035 24.5391586,43.9999406 22.3334329,43.9999406 C20.1277072,43.9999406 18.33347,42.2057035 18.33347,39.9999777 C18.33347,37.794252 20.1277072,36.0000148 22.3334329,36.0000148 C24.5391586,36.0000148 26.3333958,37.794252 26.3333958,39.9999777 Z" id="Combined-Shape"></path>
                    </g>
                </g>
            </g>
        </g>
    </g>
</svg>