<?xml version="1.0" encoding="UTF-8" standalone="no"?>
<svg width="63px" height="67px" viewBox="0 0 63 67" version="1.1" xmlns="http://www.w3.org/2000/svg" xmlns:xlink="http://www.w3.org/1999/xlink">
    <!-- Generator: Sketch 3.7.2 (28276) - http://www.bohemiancoding.com/sketch -->
    <title>Shape</title>
    <desc>Created with Sketch.</desc>
    <defs></defs>
    <g id="Page-1" stroke="none" stroke-width="1" fill="none" fill-rule="evenodd">
        <g id="阅文集团-3" transform="translate(-1471.000000, -582.000000)" stroke="#019EE4" stroke-width="2.5">
            <g id="about" transform="translate(0.000000, 511.000000)">
                <g id="Group-2" transform="translate(810.000000, 59.000000)">
                    <g id="2" transform="translate(660.000000, 14.000000)">
                        <g id="icon_user" transform="translate(3.000000, 0.000000)">
                            <path d="M35.8477804,39.5516042 C35.8477804,39.5516042 40.5850304,34.8618958 41.6175304,28.555625 C44.3949263,28.555625 46.1105096,21.8512292 43.3325304,19.492375 C43.4489054,17.0092708 44.9028221,0 29.4158013,0 C13.9287804,0 15.3829888,17.0092708 15.4986346,19.492375 C12.7209471,21.8512292 14.4362388,28.555625 17.2137804,28.555625 C18.2461346,34.8618958 22.9835304,39.5516042 22.9835304,39.5516042 C22.9835304,39.5516042 22.9467804,43.9846458 21.7491346,44.2411667 C4.7491345,46 1.11602453,56.3186924 1.11602453,56.3186924 C-1.29574219,60.0086767 0.331434335,63 4.74393474,63 L54.0876678,63 C58.503074,63 60.3898669,59.8459797 57.8846302,56.2049614 C57.8846302,56.2049614 54.7491346,46 37.7491346,44.2411667 C35.8845304,43.9846458 35.8477804,39.5516042 35.8477804,39.5516042 Z" id="Shape"></path>
                        </g>
                    </g>
                </g>
            </g>
        </g>
    </g>
</svg>