<?xml version="1.0" encoding="UTF-8" standalone="no"?>
<svg width="44px" height="45px" viewBox="0 0 44 45" version="1.1" xmlns="http://www.w3.org/2000/svg" xmlns:xlink="http://www.w3.org/1999/xlink">
    <!-- Generator: Sketch 3.8.1 (29687) - http://www.bohemiancoding.com/sketch -->
    <title>weibo</title>
    <desc>Created with Sketch.</desc>
    <defs>
        <ellipse id="path-1" cx="22" cy="21.8314894" rx="22" ry="21.8314894"></ellipse>
        <mask id="mask-2" maskContentUnits="userSpaceOnUse" maskUnits="objectBoundingBox" x="0" y="0" width="44" height="43.6629787" fill="white">
            <use xlink:href="#path-1"></use>
        </mask>
        <path d="M26.6735667,12.9149235 C26.2594669,12.9230787 25.9238954,13.2628758 25.9238954,13.6774283 L25.9238954,14.0466745 C25.9238954,14.4598678 26.2580972,14.7751995 26.6840676,14.7679505 C26.6840676,14.7679505 29.9146853,14.4277003 31.2912133,16.4184583 C32.6668282,18.4087633 32.0723872,20.9069517 32.0723872,20.9069517 C32.009382,21.3147083 32.2947319,21.6454441 32.714767,21.6454441 L33.0357286,21.6454441 C33.454394,21.6454441 33.8406436,21.3156144 33.8858431,20.9042334 C33.8858431,20.9042334 34.6268398,16.9802562 32.3330829,14.7946812 C30.541542,13.0870874 28.094381,12.9004255 27.1100379,12.9004255 C26.8342758,12.9004255 26.6735667,12.9149235 26.6735667,12.9149235 L26.6735667,12.9149235 Z M10,25.4892291 C10,29.3425284 14.8048361,32.4668496 20.7309833,32.4668496 C26.6580437,32.4668496 31.4163107,29.3425284 31.4163107,25.4892291 C31.4163107,22.2335197 27.3711902,22.2335197 27.3711902,22.0237516 C27.3711902,21.8135304 29.3855324,19.9219932 27.3711902,18.745389 C26.1635893,18.0399702 24.3556122,18.4006082 23.1251833,18.7607931 C22.302919,19.0018226 21.738611,19.2423989 21.7828973,19.1653782 C23.3671601,16.4184583 21.1026231,15.550843 19.9479832,15.550843 C17.1953837,15.550843 10,21.6354767 10,25.4892291 L10,25.4892291 Z M13.5296644,26.79405 C13.1781133,24.3135311 15.962672,21.8746939 19.748923,21.3468757 C23.5351741,20.8186045 26.8895195,22.4011529 27.2410706,24.8821249 C27.5921652,27.3626439 24.8076065,29.8014811 21.0208989,30.3292992 C20.5291839,30.3977117 20.0447738,30.4307853 19.5726909,30.4307853 C16.4142097,30.4307853 13.835103,28.9519883 13.5296644,26.79405 L13.5296644,26.79405 Z M27.1127773,16.3432499 C26.8383848,16.3849317 26.6160402,16.6427244 26.6160402,16.9168275 L26.6160402,17.1116445 C26.6160402,17.3871067 26.8379283,17.5937033 27.1246479,17.5855482 C27.1246479,17.5855482 28.4966103,17.4006985 29.1645574,18.1989952 C29.8315914,18.9972919 29.3088303,20.288974 29.3088303,20.288974 C29.2289323,20.5503913 29.3923808,20.7624247 29.6663167,20.7624247 L30.1215069,20.7624247 C30.3986387,20.7624247 30.6680091,20.5467668 30.7132085,20.2690393 C30.7132085,20.2690393 31.2487532,18.1989952 29.9982357,17.0640729 C29.2750449,16.4080379 28.4231041,16.2698537 27.8336853,16.2694007 C27.4036059,16.2694007 27.1127773,16.3432499 27.1127773,16.3432499 L27.1127773,16.3432499 Z M18.9800762,22.8043788 C16.7283229,23.2388661 15.2029564,25.1245135 15.5732264,27.0155978 C15.943953,28.907135 18.0701524,30.0878168 20.3219057,29.6537826 C22.5741156,29.2192953 24.0990256,27.3341009 23.7287555,25.4425636 C23.4100767,23.8160681 21.7929416,22.7146724 19.9141977,22.7146724 C19.6083026,22.7146724 19.2955591,22.7436684 18.9800762,22.8043788 L18.9800762,22.8043788 Z M19.6932227,25.4892291 C19.6932227,25.1036727 20.0027703,24.7915124 20.384911,24.7915124 C20.7675081,24.7915124 21.0775123,25.1036727 21.0775123,25.4892291 C21.0775123,25.8743325 20.7675081,26.1869459 20.384911,26.1869459 C20.0027703,26.1869459 19.6932227,25.8743325 19.6932227,25.4892291 L19.6932227,25.4892291 Z M17.0949405,27.4111216 C16.8488547,26.8864749 17.2113633,26.2018969 17.9039646,25.8815815 C18.5970225,25.560813 19.3585644,25.7252748 19.6051067,26.2494685 C19.8507359,26.7732092 19.4886839,27.4577871 18.795626,27.7785556 C18.5559321,27.8895559 18.3075635,27.9421112 18.0756311,27.9421112 C17.6373336,27.9421112 17.2556496,27.753184 17.0949405,27.4111216 L17.0949405,27.4111216 Z" id="path-3"></path>
    </defs>
    <g id="Page-1" stroke="none" stroke-width="1" fill="none" fill-rule="evenodd">
        <g id="阅文集团-1" transform="translate(-1716.000000, -3816.000000)">
            <g id="contact" transform="translate(0.000000, 3341.000000)">
                <g id="footer" transform="translate(0.000000, 454.395745)">
                    <g id="weibo" transform="translate(1716.000000, 21.000000)">
                        <use id="Oval-72" stroke="#FFFFFF" mask="url(#mask-2)" stroke-width="2" xlink:href="#path-1"></use>
                        <mask id="mask-4" fill="white">
                            <use xlink:href="#path-3"></use>
                        </mask>
                        <use id="Clip-5" fill="#FFFFFF" xlink:href="#path-3"></use>
                    </g>
                </g>
            </g>
        </g>
    </g>
</svg>