<?xml version="1.0" encoding="UTF-8" standalone="no"?>
<svg width="44px" height="45px" viewBox="0 0 44 45" version="1.1" xmlns="http://www.w3.org/2000/svg" xmlns:xlink="http://www.w3.org/1999/xlink">
    <!-- Generator: Sketch 3.8.1 (29687) - http://www.bohemiancoding.com/sketch -->
    <title>weixin</title>
    <desc>Created with Sketch.</desc>
    <defs>
        <circle id="path-1" cx="22" cy="22" r="22"></circle>
        <mask id="mask-2" maskContentUnits="userSpaceOnUse" maskUnits="objectBoundingBox" x="0" y="0" width="44" height="44" fill="white">
            <use xlink:href="#path-1"></use>
        </mask>
        <path d="M11,19.5224658 C11,22.0039071 12.3779032,24.2053397 14.5029303,25.5754287 C14.7408292,25.7286738 13.7128283,27.8892989 13.9689603,28.021272 C14.1868895,28.1337096 14.7408292,27.7169525 15.295203,27.3001954 C15.8313436,26.896896 16.3679184,26.4935967 16.6006078,26.569568 C17.5417842,26.8764923 18.5606685,27.0449316 19.6247015,27.0449316 C20.1582375,27.0449316 20.6800521,27.0023877 21.1862383,26.9220751 C22.1881919,29.2246581 24.8046451,30.8678099 27.8751899,30.8678099 C28.7143477,30.8678099 29.519644,30.7449533 30.266768,30.519644 C30.3887562,30.4827437 30.8602127,30.8274365 31.3321033,31.1721294 C31.8100716,31.5215976 32.2893423,31.8706316 32.4061211,31.8224441 C32.782939,31.6674626 31.7193401,29.9279357 32.0553506,29.7217278 C33.8395919,28.6260039 35,26.8478402 35,24.840026 C35,21.6066855 31.9911005,18.968092 28.2129368,18.8191882 C27.8061645,14.9941394 24.1165618,12 19.6247015,12 C14.861081,12 11,15.3679184 11,19.5224658 L11,19.5224658 Z M15.6390276,24.9155633 C15.6668114,24.633384 15.2409377,24.4362926 15.1558498,24.3785544 C13.5365748,23.2724115 12.4998915,21.4451921 12.4998915,19.5463425 C12.4998915,16.2148904 15.6898198,13.5137834 19.6247015,13.5137834 C23.29911,13.5137834 26.3240721,15.8688952 26.7087041,18.8929889 C23.3281962,19.3635772 20.7499457,21.8471891 20.7499457,24.840026 C20.7499457,25.0627306 20.7642718,25.2823964 20.7920556,25.4985891 C20.4126329,25.551552 20.0223573,25.5793358 19.6247015,25.5793358 C18.6301281,25.5793358 17.6828739,25.4065552 16.8228782,25.0948557 C16.7373562,25.064033 16.4313002,24.9706968 16.2663338,25.0948557 C15.8938572,25.3744302 15.3954851,25.9539831 15.3954851,25.9539831 C15.3954851,25.9539831 15.5778164,25.5320165 15.6390276,24.9155633 L15.6390276,24.9155633 Z M29,22.5973519 C29,22.1792924 29.3360104,21.839809 29.7501628,21.839809 C30.1643152,21.839809 30.5003256,22.1792924 30.5003256,22.5973519 C30.5003256,23.0154113 30.1643152,23.3540265 29.7501628,23.3540265 C29.3360104,23.3540265 29,23.0154113 29,22.5973519 L29,22.5973519 Z M24.4998915,22.5973519 C24.4998915,22.1792924 24.8359019,21.839809 25.2500543,21.839809 C25.6642066,21.839809 25.9997829,22.1792924 25.9997829,22.5973519 C25.9997829,23.0154113 25.6642066,23.3540265 25.2500543,23.3540265 C24.8359019,23.3540265 24.4998915,23.0154113 24.4998915,22.5973519 L24.4998915,22.5973519 Z M21.4996744,16.9203386 C21.4996744,17.5472108 22.00369,18.0555676 22.6249186,18.0555676 C23.2461472,18.0555676 23.7497287,17.5472108 23.7497287,16.9203386 C23.7497287,16.2930323 23.2461472,15.7846755 22.6249186,15.7846755 C22.00369,15.7846755 21.4996744,16.2930323 21.4996744,16.9203386 L21.4996744,16.9203386 Z M15.5001085,16.9203386 C15.5001085,17.5472108 16.00369,18.0555676 16.6249186,18.0555676 C17.2461472,18.0555676 17.7501628,17.5472108 17.7501628,16.9203386 C17.7501628,16.2930323 17.2461472,15.7846755 16.6249186,15.7846755 C16.00369,15.7846755 15.5001085,16.2930323 15.5001085,16.9203386 L15.5001085,16.9203386 Z" id="path-3"></path>
    </defs>
    <g id="Page-1" stroke="none" stroke-width="1" fill="none" fill-rule="evenodd">
        <g id="阅文集团-1" transform="translate(-1652.000000, -3816.000000)">
            <g id="contact" transform="translate(0.000000, 3341.000000)">
                <g id="footer" transform="translate(0.000000, 454.395745)">
                    <g id="weixin" transform="translate(1652.000000, 21.000000)">
                        <use id="Oval-72" stroke="#FFFFFF" mask="url(#mask-2)" stroke-width="2" xlink:href="#path-1"></use>
                        <mask id="mask-4" fill="white">
                            <use xlink:href="#path-3"></use>
                        </mask>
                        <use id="Clip-2" fill="#FFFFFF" xlink:href="#path-3"></use>
                    </g>
                </g>
            </g>
        </g>
    </g>
</svg>